<svg width="47" height="47" viewBox="0 0 47 47" fill="none" xmlns="http://www.w3.org/2000/svg">
<g clip-path="url(#clip0_357_33253)">
<path d="M40.185 6.75429C35.72 2.43812 29.845 0 23.5881 0C5.63021 0 -5.64587 19.456 3.32133 34.9328L0 47L12.406 43.7648C17.811 46.6847 22.2388 46.4262 23.5999 46.5985C44.4228 46.5985 54.7883 21.4065 40.1556 6.83067L40.185 6.75429Z" fill="#ECEFF1"/>
<path d="M23.6309 42.5955L23.6191 42.5936H23.5878C17.3564 42.5936 13.3751 39.6423 12.9834 39.472L5.63965 41.3813L7.60777 34.2432L7.13973 33.5088C5.20098 30.4225 4.1709 26.8681 4.1709 23.208C4.1709 5.98839 25.2132 -2.6224 37.3901 9.54864C49.5377 21.5924 41.0091 42.5955 23.6309 42.5955Z" fill="#4CAF50"/>
<path d="M34.2848 28.0178L34.2672 28.1646C33.6777 27.8709 30.8068 26.4668 30.2722 26.2729C29.0717 25.8283 29.4105 26.2024 27.1056 28.8422C26.7629 29.2241 26.4221 29.2535 25.8405 28.9891C25.253 28.6953 23.3671 28.0785 21.1346 26.081C19.3956 24.5241 18.2284 22.6147 17.8838 22.0272C17.31 21.0363 18.5104 20.8953 19.6032 18.8273C19.799 18.4161 19.6991 18.0929 19.5542 17.8011C19.4074 17.5074 18.2382 14.6286 17.7486 13.4811C17.2786 12.3374 16.7949 12.4823 16.4326 12.4823C15.3046 12.3844 14.4802 12.4001 13.7536 13.156C10.5929 16.6301 11.3899 20.2138 14.0944 24.0247C19.4093 30.9807 22.2411 32.2615 27.4189 34.0396C28.8171 34.4842 30.092 34.4215 31.1006 34.2766C32.2246 34.0984 34.5609 32.8646 35.0486 31.484C35.5479 30.1034 35.5479 28.9578 35.4011 28.6934C35.2561 28.429 34.8723 28.2821 34.2848 28.0178Z" fill="#FAFAFA"/>
</g>
<defs>
<clipPath id="clip0_357_33253">
<rect width="47" height="47" fill="white"/>
</clipPath>
</defs>
</svg>
